<svg width="20" height="16" viewBox="0 0 20 16" fill="none" xmlns="http://www.w3.org/2000/svg">
<path d="M10 15.95C9.75281 15.9506 9.50793 15.9023 9.27946 15.8079C9.05099 15.7135 8.84344 15.5749 8.66876 15.4L2.23126 8.96251C1.72272 8.44844 1.32156 7.83831 1.05116 7.16767C0.780759 6.49704 0.646517 5.77929 0.656256 5.05626C0.661156 4.39366 0.79673 3.73853 1.05521 3.12841C1.3137 2.51829 1.69001 1.96515 2.1626 1.50069C2.63519 1.03623 3.19476 0.669571 3.80928 0.421711C4.42379 0.17385 5.08117 0.0496603 5.74376 0.0562553C6.4182 0.0494617 7.08715 0.178178 7.71091 0.43477C8.33468 0.691362 8.90056 1.0706 9.37501 1.55001L10 2.17501L10.5125 1.66251C11.3975 0.75411 12.5816 0.197201 13.8457 0.0949268C15.1097 -0.00734716 16.368 0.351945 17.3875 1.10626C17.9678 1.55316 18.4463 2.11858 18.791 2.76486C19.1357 3.41113 19.3388 4.12343 19.3867 4.85433C19.4346 5.58523 19.3262 6.31794 19.0688 7.00368C18.8114 7.68941 18.4108 8.31244 17.8938 8.83126L11.3313 15.4C11.1566 15.5749 10.949 15.7135 10.7206 15.8079C10.4921 15.9023 10.2472 15.9506 10 15.95ZM5.71876 1.30001C4.72533 1.29899 3.77048 1.68452 3.05626 2.37501C2.69213 2.72535 2.40256 3.14566 2.20494 3.61071C2.00732 4.07576 1.90573 4.57596 1.90626 5.08126C1.90078 5.63708 2.00568 6.18846 2.21489 6.70343C2.4241 7.2184 2.73345 7.68673 3.12501 8.08125L9.56251 14.5188C9.62061 14.5773 9.68973 14.6238 9.7659 14.6556C9.84206 14.6873 9.92375 14.7036 10.0063 14.7036C10.0888 14.7036 10.1705 14.6873 10.2466 14.6556C10.3228 14.6238 10.3919 14.5773 10.45 14.5188L17.0188 7.94376C17.4043 7.55003 17.7022 7.07918 17.8929 6.56213C18.0836 6.04508 18.1627 5.49355 18.125 4.94376C18.0916 4.38833 17.9386 3.84667 17.6765 3.35585C17.4144 2.86503 17.0493 2.43664 16.6063 2.10001C15.8288 1.52681 14.8696 1.25579 13.9071 1.33743C12.9447 1.41907 12.0448 1.8478 11.375 2.54376L10.4438 3.50001C10.3857 3.55859 10.3165 3.60508 10.2404 3.63681C10.1642 3.66854 10.0825 3.68488 10 3.68488C9.9175 3.68488 9.83581 3.66854 9.75965 3.63681C9.68348 3.60508 9.61436 3.55859 9.55626 3.50001L8.49376 2.43751C7.76195 1.71205 6.7742 1.30349 5.74376 1.30001H5.71876Z" fill="#101820"/>
</svg>
